<svg width="22" height="22" viewBox="0 0 22 22" fill="none" xmlns="http://www.w3.org/2000/svg">
<g clip-path="url(#clip0_7_28)">
<path d="M10.6066 3.92894C12.5592 1.97631 15.725 1.97631 17.6776 3.92894C19.6302 5.88156 19.6302 9.04738 17.6776 11L15.9099 12.7678C15.3241 13.3536 14.3743 13.3536 13.7885 12.7678L8.83879 7.81802C8.253 7.23224 8.253 6.28249 8.83879 5.6967L10.6066 3.92894Z" fill="black" fill-opacity="0.8"/>
<path d="M10.6066 18.0711C8.65396 20.0237 5.48813 20.0237 3.53551 18.0711C1.58289 16.1184 1.58289 12.9526 3.53551 11L5.30328 9.23223C5.88907 8.64644 6.83881 8.64644 7.4246 9.23223L12.3743 14.182C12.9601 14.7678 12.9601 15.7175 12.3743 16.3033L10.6066 18.0711Z" fill="black" fill-opacity="0.8"/>
</g>
<defs>
<clipPath id="clip0_7_28">
<rect width="10" height="20" fill="white" transform="translate(14.1421 0.393402) rotate(45)"/>
</clipPath>
</defs>
</svg>
